<mxfile host="app.diagrams.net" modified="2024-05-01T11:16:28.100Z" agent="Mozilla/5.0 (Macintosh; Intel Mac OS X 10_15_7) AppleWebKit/537.36 (KHTML, like Gecko) Chrome/123.0.0.0 Safari/537.36" etag="5FPZ3BJILg8h_OMMoLMm" version="24.2.3" type="github">
  <diagram name="Page-1" id="iQ-f1n1S-eII0uBjh4Ej">
    <mxGraphModel dx="826" dy="528" grid="1" gridSize="10" guides="1" tooltips="1" connect="1" arrows="1" fold="1" page="1" pageScale="1" pageWidth="827" pageHeight="1169" math="0" shadow="0">
      <root>
        <mxCell id="0" />
        <mxCell id="1" parent="0" />
        <mxCell id="1hQDSbl47C3tJXMOemWi-35" value="" style="rounded=1;whiteSpace=wrap;html=1;gradientColor=none;fillColor=none;dashed=1;" vertex="1" parent="1">
          <mxGeometry x="330" y="520" width="240" height="230" as="geometry" />
        </mxCell>
        <mxCell id="1hQDSbl47C3tJXMOemWi-34" value="" style="rounded=1;whiteSpace=wrap;html=1;gradientColor=none;fillColor=none;dashed=1;" vertex="1" parent="1">
          <mxGeometry x="60" y="520" width="240" height="230" as="geometry" />
        </mxCell>
        <mxCell id="RWLqJa5GcGEu1y-GDK2T-5" value="Google Places API" style="rounded=1;whiteSpace=wrap;html=1;" parent="1" vertex="1">
          <mxGeometry x="530" y="210" width="120" height="50" as="geometry" />
        </mxCell>
        <mxCell id="RWLqJa5GcGEu1y-GDK2T-7" value="Android Device" style="rounded=1;whiteSpace=wrap;html=1;" parent="1" vertex="1">
          <mxGeometry x="200" y="330" width="120" height="60" as="geometry" />
        </mxCell>
        <mxCell id="RWLqJa5GcGEu1y-GDK2T-8" value="Google Maps API" style="rounded=1;whiteSpace=wrap;html=1;" parent="1" vertex="1">
          <mxGeometry x="530" y="155" width="120" height="50" as="geometry" />
        </mxCell>
        <mxCell id="1hQDSbl47C3tJXMOemWi-1" value="MySQL DB" style="rounded=1;whiteSpace=wrap;html=1;" vertex="1" parent="1">
          <mxGeometry x="354" y="330" width="120" height="60" as="geometry" />
        </mxCell>
        <mxCell id="1hQDSbl47C3tJXMOemWi-52" style="edgeStyle=orthogonalEdgeStyle;rounded=0;orthogonalLoop=1;jettySize=auto;html=1;" edge="1" parent="1" source="1hQDSbl47C3tJXMOemWi-12" target="RWLqJa5GcGEu1y-GDK2T-7">
          <mxGeometry relative="1" as="geometry" />
        </mxCell>
        <mxCell id="1hQDSbl47C3tJXMOemWi-53" value="Restful API" style="edgeLabel;html=1;align=center;verticalAlign=middle;resizable=0;points=[];" vertex="1" connectable="0" parent="1hQDSbl47C3tJXMOemWi-52">
          <mxGeometry x="0.279" relative="1" as="geometry">
            <mxPoint as="offset" />
          </mxGeometry>
        </mxCell>
        <mxCell id="1hQDSbl47C3tJXMOemWi-54" style="edgeStyle=orthogonalEdgeStyle;rounded=0;orthogonalLoop=1;jettySize=auto;html=1;" edge="1" parent="1" source="1hQDSbl47C3tJXMOemWi-12" target="1hQDSbl47C3tJXMOemWi-1">
          <mxGeometry relative="1" as="geometry">
            <Array as="points">
              <mxPoint x="430" y="300" />
              <mxPoint x="430" y="300" />
            </Array>
          </mxGeometry>
        </mxCell>
        <mxCell id="1hQDSbl47C3tJXMOemWi-55" style="edgeStyle=orthogonalEdgeStyle;rounded=0;orthogonalLoop=1;jettySize=auto;html=1;" edge="1" parent="1" source="1hQDSbl47C3tJXMOemWi-12" target="RWLqJa5GcGEu1y-GDK2T-8">
          <mxGeometry relative="1" as="geometry" />
        </mxCell>
        <mxCell id="1hQDSbl47C3tJXMOemWi-56" style="edgeStyle=orthogonalEdgeStyle;rounded=0;orthogonalLoop=1;jettySize=auto;html=1;entryX=0;entryY=0.5;entryDx=0;entryDy=0;" edge="1" parent="1" source="1hQDSbl47C3tJXMOemWi-12" target="RWLqJa5GcGEu1y-GDK2T-5">
          <mxGeometry relative="1" as="geometry" />
        </mxCell>
        <mxCell id="1hQDSbl47C3tJXMOemWi-12" value="DJANGO" style="rounded=1;whiteSpace=wrap;html=1;" vertex="1" parent="1">
          <mxGeometry x="370" y="150" width="120" height="60" as="geometry" />
        </mxCell>
        <mxCell id="1hQDSbl47C3tJXMOemWi-30" style="edgeStyle=orthogonalEdgeStyle;rounded=0;orthogonalLoop=1;jettySize=auto;html=1;entryX=1;entryY=0.5;entryDx=0;entryDy=0;" edge="1" parent="1" target="1hQDSbl47C3tJXMOemWi-28">
          <mxGeometry relative="1" as="geometry">
            <mxPoint x="330.0000000000001" y="555.0034782608698" as="sourcePoint" />
            <mxPoint x="150" y="585.0034782608698" as="targetPoint" />
            <Array as="points">
              <mxPoint x="240" y="555" />
              <mxPoint x="240" y="585" />
            </Array>
          </mxGeometry>
        </mxCell>
        <mxCell id="1hQDSbl47C3tJXMOemWi-33" style="edgeStyle=orthogonalEdgeStyle;rounded=0;orthogonalLoop=1;jettySize=auto;html=1;exitX=0;exitY=0.5;exitDx=0;exitDy=0;" edge="1" parent="1" source="1hQDSbl47C3tJXMOemWi-27" target="1hQDSbl47C3tJXMOemWi-32">
          <mxGeometry relative="1" as="geometry">
            <mxPoint x="370.0000000000001" y="620.0034782608698" as="sourcePoint" />
            <mxPoint x="129.9565217391305" y="679.96" as="targetPoint" />
            <Array as="points">
              <mxPoint x="240" y="555" />
              <mxPoint x="240" y="640" />
            </Array>
          </mxGeometry>
        </mxCell>
        <mxCell id="1hQDSbl47C3tJXMOemWi-37" style="edgeStyle=orthogonalEdgeStyle;rounded=0;orthogonalLoop=1;jettySize=auto;html=1;" edge="1" parent="1" source="1hQDSbl47C3tJXMOemWi-27" target="1hQDSbl47C3tJXMOemWi-36">
          <mxGeometry relative="1" as="geometry" />
        </mxCell>
        <mxCell id="1hQDSbl47C3tJXMOemWi-41" style="edgeStyle=orthogonalEdgeStyle;rounded=0;orthogonalLoop=1;jettySize=auto;html=1;entryX=1;entryY=0.5;entryDx=0;entryDy=0;" edge="1" parent="1" source="1hQDSbl47C3tJXMOemWi-27" target="1hQDSbl47C3tJXMOemWi-40">
          <mxGeometry relative="1" as="geometry" />
        </mxCell>
        <mxCell id="1hQDSbl47C3tJXMOemWi-45" style="edgeStyle=orthogonalEdgeStyle;rounded=0;orthogonalLoop=1;jettySize=auto;html=1;" edge="1" parent="1" source="1hQDSbl47C3tJXMOemWi-27" target="1hQDSbl47C3tJXMOemWi-44">
          <mxGeometry relative="1" as="geometry" />
        </mxCell>
        <mxCell id="1hQDSbl47C3tJXMOemWi-27" value="The Nav App&amp;nbsp;" style="rounded=1;whiteSpace=wrap;html=1;" vertex="1" parent="1">
          <mxGeometry x="370" y="525" width="120" height="60" as="geometry" />
        </mxCell>
        <mxCell id="1hQDSbl47C3tJXMOemWi-28" value="Google Maps API" style="rounded=1;whiteSpace=wrap;html=1;" vertex="1" parent="1">
          <mxGeometry x="70" y="560" width="120" height="50" as="geometry" />
        </mxCell>
        <mxCell id="1hQDSbl47C3tJXMOemWi-32" value="Wikipedia API" style="rounded=1;whiteSpace=wrap;html=1;" vertex="1" parent="1">
          <mxGeometry x="70" y="615" width="120" height="50" as="geometry" />
        </mxCell>
        <mxCell id="1hQDSbl47C3tJXMOemWi-36" value="Local storage" style="rounded=1;whiteSpace=wrap;html=1;" vertex="1" parent="1">
          <mxGeometry x="370" y="620" width="120" height="60" as="geometry" />
        </mxCell>
        <mxCell id="1hQDSbl47C3tJXMOemWi-38" value="3rd Party" style="text;html=1;align=center;verticalAlign=middle;whiteSpace=wrap;rounded=0;" vertex="1" parent="1">
          <mxGeometry x="70" y="715" width="60" height="30" as="geometry" />
        </mxCell>
        <mxCell id="1hQDSbl47C3tJXMOemWi-39" value="Phone" style="text;html=1;align=center;verticalAlign=middle;whiteSpace=wrap;rounded=0;" vertex="1" parent="1">
          <mxGeometry x="350" y="710" width="60" height="30" as="geometry" />
        </mxCell>
        <mxCell id="1hQDSbl47C3tJXMOemWi-40" value="ChatGPT API" style="rounded=1;whiteSpace=wrap;html=1;" vertex="1" parent="1">
          <mxGeometry x="70" y="665" width="120" height="50" as="geometry" />
        </mxCell>
        <mxCell id="1hQDSbl47C3tJXMOemWi-42" value="" style="rounded=1;whiteSpace=wrap;html=1;gradientColor=none;fillColor=none;dashed=1;" vertex="1" parent="1">
          <mxGeometry x="600" y="505" width="270" height="260" as="geometry" />
        </mxCell>
        <mxCell id="1hQDSbl47C3tJXMOemWi-43" value="Server" style="text;html=1;align=center;verticalAlign=middle;whiteSpace=wrap;rounded=0;" vertex="1" parent="1">
          <mxGeometry x="610" y="730" width="60" height="30" as="geometry" />
        </mxCell>
        <mxCell id="1hQDSbl47C3tJXMOemWi-48" style="edgeStyle=orthogonalEdgeStyle;rounded=0;orthogonalLoop=1;jettySize=auto;html=1;exitX=0.5;exitY=1;exitDx=0;exitDy=0;entryX=0.5;entryY=0;entryDx=0;entryDy=0;" edge="1" parent="1" source="1hQDSbl47C3tJXMOemWi-44" target="1hQDSbl47C3tJXMOemWi-46">
          <mxGeometry relative="1" as="geometry" />
        </mxCell>
        <mxCell id="1hQDSbl47C3tJXMOemWi-44" value="Ratings Service" style="rounded=1;whiteSpace=wrap;html=1;" vertex="1" parent="1">
          <mxGeometry x="660" y="525" width="120" height="60" as="geometry" />
        </mxCell>
        <mxCell id="1hQDSbl47C3tJXMOemWi-49" style="edgeStyle=orthogonalEdgeStyle;rounded=0;orthogonalLoop=1;jettySize=auto;html=1;exitX=0.5;exitY=1;exitDx=0;exitDy=0;entryX=0.5;entryY=0;entryDx=0;entryDy=0;" edge="1" parent="1" source="1hQDSbl47C3tJXMOemWi-46" target="1hQDSbl47C3tJXMOemWi-47">
          <mxGeometry relative="1" as="geometry" />
        </mxCell>
        <mxCell id="1hQDSbl47C3tJXMOemWi-46" value="database" style="rounded=1;whiteSpace=wrap;html=1;" vertex="1" parent="1">
          <mxGeometry x="660" y="605" width="120" height="60" as="geometry" />
        </mxCell>
        <mxCell id="1hQDSbl47C3tJXMOemWi-47" value="Local Storage/ Remote storage" style="rounded=1;whiteSpace=wrap;html=1;" vertex="1" parent="1">
          <mxGeometry x="660" y="680" width="120" height="60" as="geometry" />
        </mxCell>
        <mxCell id="1hQDSbl47C3tJXMOemWi-62" value="The Nav App UI&amp;nbsp;" style="rounded=1;whiteSpace=wrap;html=1;" vertex="1" parent="1">
          <mxGeometry x="10" y="330" width="120" height="60" as="geometry" />
        </mxCell>
        <mxCell id="1hQDSbl47C3tJXMOemWi-63" style="edgeStyle=orthogonalEdgeStyle;rounded=0;orthogonalLoop=1;jettySize=auto;html=1;entryX=1;entryY=0.75;entryDx=0;entryDy=0;" edge="1" parent="1">
          <mxGeometry relative="1" as="geometry">
            <mxPoint x="200" y="359.38" as="sourcePoint" />
            <mxPoint x="130" y="359.38" as="targetPoint" />
            <Array as="points">
              <mxPoint x="140" y="359.38" />
            </Array>
          </mxGeometry>
        </mxCell>
      </root>
    </mxGraphModel>
  </diagram>
</mxfile>
